<?xml version="1.0" encoding="UTF-8"?>
<svg xmlns="http://www.w3.org/2000/svg" version="1.1" viewBox="0 0 663.23 625.06">
  <!-- Generator: Adobe Illustrator 30.1.0, SVG Export Plug-In . SVG Version: 2.1.1 Build 136)  -->
  <defs>
    <style>
      .st0 {
        opacity: .2;
      }

      .st0, .st1, .st2, .st3, .st4, .st5, .st6, .st7 {
        fill: #eabfd3;
      }

      .st0, .st1, .st2, .st4, .st5, .st6, .st7 {
        stroke: #eabfd3;
        stroke-miterlimit: 10;
      }

      .st0, .st4, .st5, .st6 {
        mix-blend-mode: overlay;
      }

      .st1, .st2, .st7 {
        mix-blend-mode: multiply;
      }

      .st1, .st4 {
        opacity: .13;
      }

      .st8 {
        isolation: isolate;
      }

      .st2 {
        opacity: .49;
      }

      .st9 {
        fill: #fff;
      }

      .st5 {
        opacity: .39;
      }

      .st6 {
        opacity: .75;
      }

      .st7 {
        opacity: .18;
      }
    </style>
  </defs>
  <g class="st8">
    <g id="Layer_1">
      <g>
        <g>
          <g>
            <polygon class="st3" points="336.82 487 129.21 622.84 208.09 386.28 .8 237.82 257.61 237.82 336.82 2.35 412.98 237.56 660.76 237.82 462.46 390.37 537.74 622.85 336.82 487"/>
            <path class="st3" d="M336.82,3.17l75.98,234.65,247.22.26-197.85,152.2,75.11,231.95-200.45-135.53-207.13,135.53,78.71-236.04L1.59,238.07h256.2L336.82,3.17M336.83,1.54l-.49,1.47-78.91,234.56H0l1.29.93,206.5,147.89-78.59,235.68-.46,1.39,1.23-.8,206.85-135.34,200.17,135.34,1.23.83-.46-1.41-75-231.61,197.56-151.98,1.19-.91h-1.5s-246.84-.26-246.84-.26L337.3,3.01l-.48-1.47h0Z"/>
          </g>
          <polygon class="st2" points="336.82 486.7 208.4 386.19 129.68 622.23 336.82 486.7"/>
          <polygon class="st7" points="336.82 3.17 537.27 622.23 336.82 486.7 336.82 3.17"/>
          <polygon class="st6" points="336.82 3.17 257.79 237.82 660.01 238.07 336.82 486.7 537.27 622.23 336.82 3.17"/>
          <polygon class="st2" points="660.01 238.07 1.59 238.07 204.63 383.24 660.01 238.07"/>
          <polygon class="st4" points="129.68 622.23 336.82 486.7 336.82 3.17 129.68 622.23"/>
          <polygon class="st5" points="1.59 238.07 257.79 238.07 208.4 386.19 1.59 238.07"/>
          <polygon class="st0" points="336.82 486.7 336.82 3.17 537.27 622.23 336.82 486.7"/>
          <polygon class="st0" points="257.79 238.07 129.68 622.23 336.82 486.7 257.79 238.07"/>
          <polygon class="st1" points="537.27 622.23 412.79 237.82 257.79 238.07 537.27 622.23"/>
        </g>
        <path class="st9" d="M357.22,297.62c3.1-4.63,15.65-13.96,15.65-16.01.02-2.04-13.11-49.44-14.45-51.47-1.31-2.03,20.33-10.95,19.61-24.74-.73-13.79-13.65-20.81-25.86-20.18-7.15.37-12.91,5.31-17.92,14.15-.13-.01-.24-.06-.37-.05-3.16.03-6.32.06-9.49.09-.13-3.04-1.72-5.43-4.17-5.78-3.13-.46-6.44,2.6-7.41,6.84-.95,4.24.8,8.04,3.92,8.49,2.89.42,5.92-2.17,7.13-5.9,2.83-.03,5.67-.06,8.5-.09-1.94,3.97-3.79,8.56-5.56,13.75-2.76.03-5.52.06-8.28.09-.13-3.04-1.71-5.44-4.14-5.79-3.12-.46-6.44,2.61-7.39,6.85-.95,4.23.8,8.03,3.92,8.48,2.87.42,5.89-2.16,7.1-5.9,2.53-.03,5.06-.05,7.59-.08-.36,1.14-.73,2.29-1.09,3.48-.92,3.06-1.98,6.53-3.12,10.27-2.73.03-5.46.06-8.2.08-.13-3.04-1.71-5.43-4.14-5.79-3.12-.45-6.42,2.61-7.36,6.85-.95,4.23.8,8.03,3.91,8.49,2.88.43,5.88-2.18,7.08-5.9,2.53-.03,5.07-.05,7.6-.08-1.34,4.37-2.75,9.01-4.19,13.73-2.9.03-5.8.06-8.7.09-.14-3.04-1.71-5.43-4.14-5.78-3.1-.46-6.38,2.6-7.32,6.84-.94,4.23.81,8.04,3.91,8.49,2.87.42,5.85-2.17,7.05-5.9,2.7-.03,5.4-.06,8.1-.08-1.41,4.62-2.82,9.26-4.19,13.74-2.89.03-5.78.06-8.67.09-.14-3.04-1.71-5.44-4.13-5.79-3.1-.45-6.37,2.61-7.3,6.85-.94,4.24.81,8.04,3.9,8.49,2.85.43,5.83-2.17,7.02-5.9,2.69-.03,5.37-.06,8.06-.09-1.5,4.94-2.91,9.61-4.16,13.74-2.52.03-5.03.05-7.55.08-.13-3.04-1.71-5.43-4.12-5.79-3.08-.46-6.35,2.61-7.27,6.84-.93,4.24.81,8.04,3.89,8.49,2.85.42,5.82-2.17,6.99-5.9,2.32-.03,4.63-.05,6.95-.08-1.96,6.49-3.37,11.23-3.85,12.88-1.77,6.15,8.4,11.16,9.75,16.26.89,3.42.19,109.46-.61,185.13l26.99-17.66,19.85,13.42c-2.66-76.5-6.06-171.13-6.59-177.22-.75-10.21,4.17-20.49,7.28-25.13Z"/>
      </g>
    </g>
  </g>
</svg>