<?xml version="1.0" encoding="UTF-8"?>
<svg xmlns="http://www.w3.org/2000/svg" version="1.1" viewBox="0 0 504 128.75">
  <!-- Generator: Adobe Illustrator 30.1.0, SVG Export Plug-In . SVG Version: 2.1.1 Build 136)  -->
  <defs>
    <style>
      .st0 {
        fill: #ffffff99;
      }

      .st1 {
        fill: #ffffff;
      }

      .st2 {
        isolation: isolate;
      }

      .st3, .st4, .st5, .st6, .st7, .st8, .st9, .st10 {
        fill: #eabfd3;
      }

      .st4 {
        opacity: .2;
      }

      .st4, .st5, .st6, .st7 {
        mix-blend-mode: overlay;
      }

      .st5, .st8 {
        opacity: .13;
      }

      .st6 {
        opacity: .75;
      }

      .st7 {
        opacity: .39;
      }

      .st11 {
        fill: #fff;
      }

      .st12 {
        display: none;
      }

      .st8, .st9, .st10 {
        mix-blend-mode: multiply;
      }

      .st9 {
        opacity: .49;
      }

      .st10 {
        opacity: .18;
      }
    </style>
  </defs>
  <g class="st2">
    <g id="Layer_1">
      <g class="st12">
        <g>
          <path class="st0" d="M146.99,48.87c-2.08,0-3.55-2.6-5.06-8.99-1.35-5.6.68-19.08,3.14-29.23,1.1-4.78,2.38-9.27,3.41-12.89,1.12-3.94,2.28-8.02,2.1-8.92-.13-.64.03-1.27.45-1.78.6-.73,1.7-1.15,3.03-1.15,2.29,0,4.83,1.25,5.34,4.05.38,2.18-.49,6.37-1.6,10.59,7.74-8.69,11.2-17.61,10.48-22.3-.41-2.7-2.33-4.07-5.71-4.07-1.65,0-3.48.36-5.15,1.02-6.42,2.5-12.48,8.65-16.2,16.45-3.64,7.44-5.09,16.39-3.62,22.29.56,2.23,1.28,3.05,1.58,3.23h.48l.18.21c1.21.47,1.87,1.09,2.02,1.9.12.66-.13,1.31-.69,1.77-1.09.93-2.33,1.43-3.57,1.43h0c-2.49,0-5.95-1.89-8.34-10.9-2.19-7.69-.04-16.66,6.08-25.23,5.31-7.43,12.96-13.47,19.98-15.78,3.69-1.42,7.56-2.2,10.89-2.2,7.04,0,11.36,3.35,12.17,9.43,1.09,8.76-6.62,18.27-9.15,21.39-.02.03-.04.05-.07.08l.03.06-.63.74c-.8.94-1.61,1.92-2.4,2.89l-.02.02c-2.55,3.02-5.3,5.64-7.46,7.56.46.43.98.93,1.56,1.49,3.05,2.92,7.65,7.34,12.38,10.66,5,3.56,9.35,5.37,12.95,5.37h0c1.76,0,3.31-.42,4.72-1.29,6.08-3.61,5.79-6.31,5.51-8.91-.02-.15-.03-.31-.05-.46l-.05-.51.29-.43c.31-.46,1.18-.96,2.03-.96.91,0,2.47.48,2.76,3.73.35,4.05-2.29,13.96-10.24,19.59-1.92,1.37-4.08,2.06-6.44,2.06-4.66,0-10.14-2.76-16.28-8.19-5.71-4.97-11.15-11.48-14.39-15.37-.12-.15-.24-.29-.36-.43-1.67,6.24-4.82,20.88-4.09,23.71v.04c.04.16.09.34.14.55.64,2.56,1.15,5.2-.2,6.73-.69.79-1.43.96-1.92.96h0Z"/>
          <path class="st0" d="M175.67,22.44c-1.76,0-4.03-1.02-4.79-5.89-.84-5.01.33-11.52,3.24-17.87,2.15-4.7,5.8-10.16,9.59-11.42.9-.34,1.81-.52,2.7-.52,2.06,0,3.97.91,5.53,2.64l.03.03c.37.43.5,1.01.35,1.59-.26,1.05-1.35,1.93-3.32,2.69h-.03s-.03.02-.03.02c-2.57.85-5.27,4.38-7.43,9.68-2.06,5.08-2.86,9.9-2.81,12.01,1.04-1.15,2.76-3.63,5.54-8.85.02-.04.04-.08.06-.11-.23-.6-.51-1.53-.65-2.74-.31-2.43.74-4.62,1.82-5.85.89-1.01,1.93-1.57,2.93-1.57.57,0,2.47.23,2.79,3.15.02.14.02.3.02.47.65-1.29,1.35-2.8,2.11-4.43.59-1.27,1.26-2.72,1.99-4.24.49-1.05,1.44-1.74,2.41-1.74.66,0,1.26.33,1.6.88.31.5.53,1.39-.17,2.77-.13.26-.39.86-.69,1.55-2.65,6.17-5.57,12.12-8.94,13.85l-.03.02c-.51.24-1.04.38-1.59.41-.02.04-.04.08-.07.12h0c-.04.09-.08.17-.11.24-.1.21-.25.51-.43.89l-.02.03c-2.56,4.86-4.95,8.28-7.12,10.17-.09.11-.18.19-.25.26l-.05.1-.8.52c-1.17.76-2.3,1.14-3.35,1.14h0Z"/>
          <path class="st0" d="M197.67,10.56c-2.38,0-5.36-1.31-6.01-7.57-.38-3.12,1.9-8.83,3.97-12.76,1.41-2.67,5.04-8.93,8.49-9.6.26-.06.53-.09.78-.09.64,0,1.19.19,1.64.48.31-.36.7-.84.82-1.09.01-.42.17-.82.45-1.12.32-.34.77-.53,1.27-.53,1.4,0,3.47,1.68,3.68,5.42.18,3.21-.95,4.75-1.85,5.99-.76,1.04-1.31,1.79-1.2,3.62,1.86-2.54,3.71-5.19,5.26-7.54.54-.85,1.44-1.39,2.33-1.39.72,0,1.36.36,1.7.96.29.52.48,1.42-.3,2.71l-.07.12-.1.1c-.25.28-1.32,1.8-2.46,3.42-5.52,7.86-11.68,16.38-14.93,18.07l-.06.03-.06.02c-1.22.5-2.35.76-3.37.76ZM203.37-7.63c-1.51,2.63-3.55,7.03-3.19,10.76.09,1.01.39,1.01.5,1.01.09,0,.23-.01.42-.07.9-.68,4.07-4.61,7.48-9.2-.4.1-.8.15-1.19.15h0c-1.86,0-3.18-1.16-4.02-2.65Z"/>
          <path class="st0" d="M212.46,5.65c-1.79,0-3.79-1.33-3.99-4.25-.52-5.4,5.43-15.29,10.68-24.02,2.97-4.93,6.32-10.52,6.43-12.28,0-.51.2-.98.54-1.33.28-.28.79-.62,1.64-.62,2.31,0,5.81,2.45,5.82,6.14,0,1.77-1.93,4.73-5.92,10.74-1.59,2.39-3.33,5.01-4.95,7.63,1.49-.87,3.58-2.28,5.8-4.05,4.19-3.36,5.75-5.61,5.79-6.31.01-1.69,1.12-2.46,2.16-2.46.68,0,1.38.33,1.97.92,1.07,1.08,1.67,2.89,1.65,4.96-.07,5.1-6.6,9.85-15.75,11.6,1.94,5.21,3.29,5.28,3.35,5.28,0,0,.02,0,.03,0,2.01-.35,8.17-6.23,14.66-14l.02-.02c.54-.62,1.3-.97,2.07-.97.85,0,1.58.44,1.91,1.14.22.47.45,1.43-.54,2.64l-.05.06-.05.05c-.19.19-.72.79-1.33,1.49-6.08,6.89-12.84,14.04-16.91,14.82h-.06c-.21.04-.43.06-.65.06-3.6,0-6.77-4.05-8.3-7.73-1.98,3.86-3.13,6.98-3.08,7.74.04.72-.21,1.39-.7,1.9-.54.57-1.36.9-2.23.9Z"/>
          <path class="st0" d="M283.58,16.2c-2.05,0-4.1-.18-6.1-.53-12.27-1.95-17.72-13.04-17.66-20.29,0-2.97,1.81-6.56,4.84-9.61,4.3-4.31,10.24-6.78,16.28-6.78,1.13,0,2.28.08,3.41.25,13.6,2.18,15.31,12.92,15.02,15.67-.2,1.96-1.83,3.32-3.17,3.32-.52,0-.98-.2-1.31-.56-.3-.33-.44-.75-.43-1.2-.07-.39-1.39-5.95-12.89-7.82-1.25-.17-2.47-.25-3.62-.25-9.49,0-12.69,5.53-12.7,7.02-.03,2.11,3.23,8.38,14.03,10.05h.03c1.9.35,3.84.52,5.77.52,12.47,0,21.85-6.85,22.79-13.24.38-2.64-.5-5.39-2.61-8.17-3.92-5.16-10.63-8.52-13.96-8.96h-.06c-1.89-.34-3.86-.51-6-.51-1.62,0-3,.09-4.11.17-.7.05-1.26.09-1.69.09-.2,0-.36,0-.51-.02-1.99-.21-2.57-2.77-2.21-9.76.1-3.18,6.4-6.55,17.95-6.55,4.77,0,10.15.57,16,1.69.93-1.68,1.4-3.14,1.38-4.37,0-.36-.18-.73-.35-1.09-.26-.55-.65-1.37-.12-2.21.54-.85,1.54-.85,1.87-.85.17,0,.36,0,.57.03,2.88.21,8.58,4.32,8.45,9.19-.07,3.3-2.37,5.93-4.39,8.25-.68.78-1.33,1.52-1.85,2.24-.57.77-.36,1.48.05,2.54.28.73.63,1.64.05,2.49-.25.37-.77.81-1.77.81-.29,0-.64-.04-1.05-.11-1.83-.3-3.44-2.38-4.79-4.52-4.57-1.06-8.13-1.73-10.88-2.15,3.84,1.91,8.09,4.71,11.17,8.55,3.58,4.46,4.98,9.52,4.15,15.03-.95,6.28-4.64,11.92-10.39,15.88-5.39,3.71-12.22,5.76-19.22,5.76h0Z"/>
          <path class="st0" d="M315.8,15.45c-.93,0-1.74-.18-2.4-.54-3.3-1.68-4.79-4.96-4.21-9.24.37-2.97,4.25-7.11,11.06-14.19,1.25-1.3,2.53-2.63,3.83-4-1.2-.87-2.31-1.36-3.68-1.63-2.77-.55-4.35-.69-5.5-.78-.85-.07-1.52-.13-2.28-.31-1.17-.28-1.89-1.26-1.8-2.45.11-1.45,1.33-2.64,2.84-2.77.67-.06,1.7-.13,2.95-.13,2.09,0,4.02.21,5.73.62,2.9.7,4.74,1.65,6.29,2.54,3.87-4.37,6.42-8.01,6.61-8.99.18-.91.91-1.51,1.82-1.51,1.37,0,2.63,1.36,3.1,1.94.85,1.04,2.73,3.91,1.89,7.95-.21,1.06-2.47,3.89-4.69,6.48,6.48,3.45,15.07,6.31,19.16,6.31.37,0,.69-.02.96-.07.52-.09.95-.13,1.34-.13,2.14,0,2.37,1.49,2.4,1.79.06.75-.2,1.89-2.85,4.04-.43.35-2.6,2.08-3.73,2.27-.29.05-.63.07-1.01.07-3.76,0-12.67-2.47-21.19-9.04-2.03,2.09-4.13,4.13-6.18,6.12-2.68,2.61-5.22,5.08-7.02,7.1-1.79,2.01-2.35,3.04-2.52,3.5,2.34-.34,9.75-3.75,14.68-7.83.43-.38.97-.58,1.53-.58.97,0,1.85.62,2.18,1.55.29.8.19,2-.97,2.97-1,.86-12.25,8.94-18.32,8.95Z"/>
          <path class="st0" d="M339.09,30.63c-1.27,0-2.31-.35-3.11-1.05-2.06-1.71-3.25-6.3-3.15-8.43-1.81.8-3.87,1.54-5.24,1.54-.66,0-1.22-.15-1.66-.46-2.11-1.44-4.63-6.05-3.94-10.27.87-5.96,12.26-12.63,19.33-12.63,1.5,0,2.78.29,3.82.86,3.1,1.78,3.87,7.69,3.36,9.6-.28,1.06-1.04,1.44-1.66,1.44-.31,0-.61-.09-.88-.26-.51-.31-1.22-.46-2.09-.46-.52,0-1.09.06-1.7.16.43.19.87.56,1.31,1.12,1.22,1.52,2.29,4.17,1.64,7.04-.6,2.62-2.53,4.63-3.95,6.09,2.95-1,8.29-3.9,12.55-7.51.45-.37.96-.55,1.48-.55.93,0,1.76.59,2.11,1.52.34.88.26,2.22-.98,3.31l-.03.02c-.1.09-11,8.89-17.22,8.89ZM340.22,11.19c-1.76.55-3.7,1.43-5.62,2.57-2.39,1.42-3.91,2.75-4.66,3.62,2.82-.98,8.78-4.15,9.99-5.41.03-.34.16-.6.29-.78Z"/>
          <path class="st0" d="M357.23,46.87c-3.09,0-3.85-.84-4.1-1.12-3.61-3.98-2.91-9.52-2.17-12.47.61-2.49,2.78-4.57,5.29-6.99.99-.96,2.01-1.93,2.96-2.97-1.33-.5-2.95-1.32-4.59-2.64-1.89-1.54-3.79-4.82-2.11-11.72,1.89-7.9,7.7-12.16,12.21-12.16,1.13,0,2.17.27,3.01.78,2.47,1.54,3.57,4.76,2.7,7.83-1.1,3.72-5.42,7.94-8.46,10.56,1.87.09,3.86.18,4.42.18.03,0,.15-.02.25-.04.2-.03.44-.07.72-.07.66,0,1.85.26,2.38,1.99.43,1.14,3.29,9.19-.78,11.62l-.07.04h-.03s-.03.03-.03.03c-.06.04-.13.09-.21.13-.3.22-.65.48-1.03.77-2.84,2.1-10.37,7.68-10.59,10.53-.02.27.04.44.22.62l.09.09c.21.06.6.14,1.19.14,1.41,0,8.79-.59,15.84-12.29,3.5-5.8,5.72-12.89,6.25-19.97.48-6.41-.56-10.91-1.72-12.39-.72-.91-.85-2.31-.31-3.42.43-.89,1.23-1.42,2.13-1.42.42,0,.84.12,1.25.35,1.38.78,4.7,4.85,6.49,11.1,1.56,5.44,2.35,14.05-2.74,24.16-7.46,14.82-21.88,18.74-28.46,18.74ZM363.01,7.43c-1.52.75-3.78,2.81-4.18,4.44-.02.06-.03.12-.04.18.08-.09.17-.17.25-.26,1.36-1.41,3.1-3.2,3.98-4.37Z"/>
        </g>
        <path class="st3" d="M199.36,19.34c.32,3.68-2.25,13.07-9.65,18.3-5.96,4.24-13.61.46-20.95-6.04-7.25-6.31-14.24-15.36-16.31-17.65-1.06,2.82-5.88,23.03-4.86,26.98.3,1.33,1.36,4.77.25,6.02-1.18,1.35-2.74.11-4.53-7.42-1.21-5.02.5-17.68,3.14-28.57,2.54-11.05,5.96-20.24,5.52-22.42-.35-1.71,5.34-2.04,6.02,1.66.63,3.65-3.13,15.22-3.06,15.32,10.51-9.9,15.71-21.32,14.75-27.5-.92-6.1-8.03-6.04-12.79-4.16-6.87,2.68-13.16,9.19-16.96,17.16-3.86,7.89-5.25,17.09-3.72,23.25,1.07,4.27,2.78,4.31,2.78,4.31,0,0,2.12.66,1.26,1.37-2.99,2.54-7.02,1.09-9.63-8.74-4.57-16.05,11.82-34.94,25.16-39.3,8.25-3.18,19.85-3.93,21.17,6.07,1.2,9.65-9.61,20.93-9.49,21.16-.82.96-1.62,1.93-2.42,2.92-2.81,3.32-6.02,6.32-8.51,8.45,2.33,1.99,8.64,8.7,15.27,13.34,6.69,4.77,13.74,7.5,19.24,4.12,7.21-4.29,6.41-7.88,6.13-10.72,0,0,1.86-1.55,2.18,2.1Z"/>
        <path class="st3" d="M187.02,7.45c-.12.28-.28.64-.45.95,0,0-.21.44-.58,1.19-2,3.81-4.46,7.8-6.93,9.88-.04.08-.08.11-.13.14-.09.06-.18.12-.22.2-.18.12-.32.21-.46.3-1.84,1.19-5.02,2.21-5.95-3.77-1.75-10.38,6.12-25.84,11.89-27.73,2.89-1.11,5.18.07,6.69,1.74.24.29-.1,1.13-2.4,2.02-8.73,2.89-13.88,27.37-9.78,24.94,2.68-1.82,7.13-10.86,7.17-10.78,0,0-.6-1.1-.83-2.99-.55-4.32,4.23-8.28,4.71-3.94.1.93-.62,2.94-1.94,5.87.16.09.73.04.97-.08,2.36-1.09,4.18-6.02,7.79-13.55.62-1.34,2.28-1.31,1.28.65-.89,1.75-4.92,12.68-9.01,14.78-.73.35-1.4.3-1.83.18Z"/>
        <path class="st3" d="M193.07,2.84c-.6-4.89,7-20.03,11.34-20.82,1.66-.4,2.21,1.29,2.2,1.29-.03-.44,2.23-2.36,2.17-3.31-.05-.87,2.35,0,2.56,3.77.29,5.31-3.36,4.82-3.05,9.7-3.72,1.03-4.54-4.27-4.55-4.28-.04-.07-5.62,7.61-5,14.08.21,2.34,1.66,2.58,2.96,2.1,1.48-.74,9.91-11.89,14.45-18.82.75-1.18,2.37-.99,1.32.75-1.27,1.38-12.72,18.96-17,21.19-4.92,2.03-6.93-.93-7.42-5.64Z"/>
        <path class="st3" d="M244.73-14.53c-1.33,1.32-12.54,14.97-17.51,15.91-3.99.57-8.13-6.56-8.3-10.1-2.59,4.5-5.05,10.02-4.96,11.64.09,1.87-3.84,2.03-4.07-1.65-.84-8.35,16.89-31.05,17.12-36.15-.03-1.58,5.14.25,5.15,4.15,0,2.4-7.38,11.81-12.39,20.5.38.12.86.28,1.34.2,2.71-.68,14.52-9.16,14.61-12.67,0-2.2,2.97-.95,2.93,3.38-.06,4.32-6.35,9-16.02,10.46-.07.01-.14.02-.21.03.48,1.43,2.65,8.18,5.49,7.81,3.07-.48,10.6-8.57,15.56-14.49.83-.94,2.43-.45,1.27.98Z"/>
        <path class="st3" d="M291.52-25.8c-6.02-1.07-11.1-.14-12.4-.28-1.24-.13-1.08-5.57-.94-8.29.04-2.31,9.16-8.14,33.23-3.32,1.01-1.63,2.12-3.84,2.09-5.98-.02-1.76-1.9-2.87.42-2.68,2.33.17,7.25,3.85,7.14,7.73-.09,3.8-3.88,6.8-5.97,9.69-2.15,2.91,2.27,5.8-1.32,5.17-1.58-.26-3.33-3.05-4.13-4.37-19.19-4.5-21.26-2.45-21.21-2.67.11-.53,26.18,6.32,23.35,25.14-2.18,14.37-18.79,22.62-34.05,19.91-11.57-1.84-16.54-12.4-16.49-18.87,0-6.24,9.73-16.68,22.91-14.74,13.13,2.11,13.99,12.41,13.81,14.11-.19,1.81-2.13,2.49-2.06,1.74.06-.63-1.32-7.18-14.11-9.26-12.86-1.75-17.93,5.48-17.95,8.16-.05,2.98,3.9,9.71,15.24,11.47,14.91,2.68,28.93-5.11,30.23-13.93,1.36-9.55-11.68-17.94-17.79-18.75Z"/>
        <path class="st3" d="M354.38,1.24c-2.61.44-12.58-1.74-22.09-9.49-8.79,9.2-20.01,18.27-16.4,20.01,1.44.72,10.69-3.37,16.41-8.12.91-.81,2.31.58.9,1.76-1.49,1.27-14.83,10.58-19.15,8.24-3.62-1.84-3.78-5.41-3.46-7.79.43-3.4,7.97-10.4,15.56-18.52-1.7-1.5-3.29-2.45-5.49-2.89-4.77-.95-6.09-.69-7.74-1.08-1.3-.31-.7-2.29.83-2.42,1.37-.12,4.84-.36,8.22.46,3.34.81,5.16,1.95,6.91,2.97,3.5-3.86,7.39-8.78,7.72-10.54.31-1.57,5.18,2.26,4.03,7.82-.19.93-3.93,5.35-5.53,7.16,7.16,4.13,18.34,7.99,22.59,7.25,5.74-.99-2.15,4.96-3.33,5.16Z"/>
        <path class="st3" d="M346.72,9.78c-5.68-3.43-21.77,7.26-18.27,9.25,1.03.79,13.07-5.34,12.92-6.75-.29-1.37,3.33,2.04,2.38,6.27-.96,4.23-6.37,6.94-4.95,8.03,1.34,1.1,9.9-3,15.86-8.04,1-.82,2.17.85.74,2.12-1.64,1.39-14.67,11.23-18.48,7.84-1.78-1.46-2.89-6.2-2.62-7.56.26-1.32,1.44-2.82,1.45-2.82-.03.03-7.33,4.1-8.99,2.95-1.64-1.12-3.94-5.19-3.34-8.86.86-5.89,15.48-13.82,21.05-10.75,2.88,1.65,3.29,9.01,2.26,8.32Z"/>
        <path class="st3" d="M384.41,27.5c-8.89,17.66-28.45,19.26-30.23,17.3-2.94-3.24-2.67-7.86-1.85-11.17.85-3.46,5.93-6.62,9.36-11.05-1.45-.3-3.82-1.1-6.19-3.01-1.27-1.03-3.22-3.68-1.62-10.28,2.21-9.21,9.75-12.53,13.1-10.49,1.78,1.11,2.81,3.6,2.06,6.22-1.57,5.28-10.94,12.27-10.87,12.18,0,0,7.01.37,8.2.37.76-.01,1.56-.56,2,.92.54,1.4,2.73,8.21-.16,9.93-.12.05-.26.17-.38.23-3.56,2.69-15.11,10.65-11.64,14.13,0,.02-.01.04-.02.06,1.14,1.31,10.89,1.67,19.37-12.38,8.19-13.57,7.53-30.05,4.42-33.98-.79-1.01-.09-3.13,1.24-2.37,2.06,1.17,12.42,15.04,3.19,33.38ZM357.44,15.53c4.2-4.51,8.8-8.54,7.22-9.63-1.61-1.06-6.49,2.69-7.22,5.64-.56,2.19,0,3.99,0,3.99Z"/>
      </g>
      <g>
        <g>
          <path class="st1" d="M81.85,111.65v-14.82h13.69c1.34,0,2.86.02,3.93.97.55.44,1.07,1.28,1.07,2.81,0,1.64-.38,2.33-.99,2.81-.46.38-1.03.53-1.55.67.73.11,1.43.21,2.04.67.67.48,1.07,1.2,1.07,2.96,0,1.43-.44,2.16-.88,2.67-.1.15-.34.38-.69.63-.9.63-2.02.69-4.16.63h-13.52ZM86.32,108.31h8.88c.59-.11,1.03-.23,1.24-.8.02-.08.08-.25.08-.5,0-.34-.1-.57-.27-.82-.46-.61-1.07-.59-1.76-.57h-8.17v2.69ZM86.35,102.66h7.73c.67.02,1.24.04,1.64-.5.08-.11.27-.38.27-.78,0-.27-.1-.54-.27-.76-.4-.54-.9-.54-1.53-.57h-7.83v2.6Z"/>
          <path class="st1" d="M114.42,100.98c.02-.23.06-.46.1-.69.23-1.15.78-2.14,1.83-2.75.78-.46,1.49-.59,2.37-.71,1.81-.1,3.61-.19,5.44-.19,2.14,0,4.28.08,6.45.19.23.02.46.06.69.1.61.11,2.14.4,3.04,2,.52.97.61,1.91.67,2.98.04,1.07.08,2.12.04,3.19-.02.69-.08,1.39-.13,2.1-.15,1.09-.29,1.95-1.03,2.86-1.13,1.39-2.88,1.57-4.51,1.7-1.47.02-2.96.06-4.45.06-1.7,0-3.38-.04-5.08-.08-1.32-.08-2.6-.17-3.76-.97-1.78-1.24-1.83-3.55-1.83-5.44l.15-4.35ZM127.8,108.14c.97-.08,1.85-.17,2.31-.97.19-.31.27-.63.36-1.34v-3.21c-.02-.34-.04-.59-.15-.9-.36-1.18-1.22-1.28-2.39-1.36h-6.34c-1.03.06-1.43.19-1.85.5-.29.21-.42.42-.48.55-.17.31-.23.71-.25.82-.06.53-.08,1.32-.1,2.48.04,1.26.13,2.16.46,2.64.38.53,1.13.69,2.39.8h6.05Z"/>
          <path class="st1" d="M148.55,100.98c.02-.23.06-.46.1-.69.23-1.15.78-2.14,1.83-2.75.78-.46,1.49-.59,2.37-.71,1.81-.1,3.61-.19,5.44-.19,2.14,0,4.28.08,6.45.19.23.02.46.06.69.1.61.11,2.14.4,3.04,2,.52.97.61,1.91.67,2.98.04,1.07.08,2.12.04,3.19-.02.69-.08,1.39-.13,2.1-.15,1.09-.29,1.95-1.03,2.86-1.13,1.39-2.88,1.57-4.51,1.7-1.47.02-2.96.06-4.45.06-1.7,0-3.38-.04-5.08-.08-1.32-.08-2.6-.17-3.76-.97-1.78-1.24-1.83-3.55-1.83-5.44l.15-4.35ZM161.92,108.14c.97-.08,1.85-.17,2.31-.97.19-.31.27-.63.36-1.34v-3.21c-.02-.34-.04-.59-.15-.9-.36-1.18-1.22-1.28-2.39-1.36h-6.34c-1.03.06-1.43.19-1.85.5-.29.21-.42.42-.48.55-.17.31-.23.71-.25.82-.06.53-.08,1.32-.1,2.48.04,1.26.13,2.16.46,2.64.38.53,1.13.69,2.39.8h6.05Z"/>
          <path class="st1" d="M187.59,96.82v5.48h2.31l6.17-5.48h6.26c-.88.69-1.76,1.39-2.6,2.12-.86.74-1.72,1.47-2.56,2.23-1.15.99-2.31,1.99-3.46,2.98l9.49,7.5h-6.51l-6.74-5.63h-2.37v5.63h-4.6v-14.82h4.62Z"/>
          <path class="st1" d="M219.97,96.82v5.48h2.31l6.17-5.48h6.26c-.88.69-1.76,1.39-2.6,2.12-.86.74-1.72,1.47-2.56,2.23-1.15.99-2.31,1.99-3.46,2.98l9.49,7.5h-6.51l-6.74-5.63h-2.37v5.63h-4.6v-14.82h4.62Z"/>
          <path class="st1" d="M264.27,96.82v3.28h-12.05v2.48h11.4v3.11h-11.4v2.6h12.05v3.36h-16.56v-14.82h16.56Z"/>
          <path class="st1" d="M294.89,96.82v3.28h-12.05v2.48h11.4v3.11h-11.4v2.6h12.05v3.36h-16.57v-14.82h16.57Z"/>
          <path class="st1" d="M321.31,96.82c.42-.02.84-.02,1.24,0,1.95.06,2.73.59,3.34,1.3.88,1.01.94,2.04.99,3.3.02.38.04.73.04,1.11,0,.15.13,3.28-1.51,4.54-1.11.84-2.9.86-4.16.86h-7.69v3.72h-4.68v-14.82h12.43ZM313.54,100.35v3.95h6.63c.9.02,1.53-.02,1.93-.82.1-.23.25-.57.25-1.09,0-.06-.02-1.09-.48-1.55-.34-.36-.9-.42-1.47-.48h-6.87Z"/>
          <path class="st1" d="M344.75,96.82v14.82h-4.7v-14.82h4.7Z"/>
          <path class="st1" d="M366.11,96.82c1.62,1.97,3.23,3.93,4.81,5.92,1.43,1.81,2.83,3.65,4.24,5.5l-.08-6.8v-4.62h4.28v14.82h-7.29c-1.74-2.12-3.49-4.24-5.19-6.42-1.26-1.62-2.5-3.28-3.72-4.91v11.34h-4.33v-14.82h7.26Z"/>
          <path class="st1" d="M408.67,101.95c-.13-1.22-.25-1.58-2.16-1.66h-6.36c-.59.02-1.22.06-1.7.46-.59.46-.63,1.24-.69,2.64v1.95c.02.11.02.19.02.29,0,.21,0,1.34.67,2,.55.5,1.36.54,2.23.61h5.61c.9-.02,1.7-.04,2.18-.74.27-.44.29-.9.29-1.38h-6.24v-2.9l10.86.02c0,.99.02,1.97-.02,2.98,0,.55-.02,1.09-.08,1.64-.15,1.51-.65,2.79-2.14,3.42-1.24.53-2.77.53-4.09.53h-7.54c-1.66,0-3.32-.02-4.77-1.09-.44-.34-.71-.69-.84-.84-1.03-1.51-.86-3.76-.88-5.42-.02-.44-.02-.88-.02-1.34,0-.63.02-1.26.1-1.89.23-1.83.88-3.28,2.69-4.03,1.05-.44,2.12-.48,4.39-.53.59,0,1.18-.02,1.76-.02h3.63c1.18-.02,2.33-.02,3.53.1,1.93.19,2.73.71,3.32,1.43.95,1.16.95,2.37.9,3.76h-4.64Z"/>
        </g>
        <g>
          <g>
            <polygon class="st3" points="401.47 75.54 375.86 92.3 385.59 63.13 359.99 44.8 391.7 44.8 401.48 15.72 410.88 44.77 441.46 44.8 416.99 63.62 426.28 92.31 401.47 75.54"/>
            <path class="st1" d="M401.48,16.54l9.22,28.48,30.01.03-24.02,18.48,9.12,28.16-24.33-16.45-25.14,16.45,9.55-28.65-25.1-17.98h31.1l9.59-28.51M401.49,14.91l-.49,1.47-9.48,28.17h-32.32l1.29.93,24.8,17.76-9.44,28.29-.46,1.39,1.23-.8,24.86-16.27,24.05,16.26,1.23.83-.46-1.41-9.01-27.81,23.73-18.26,1.19-.91h-1.5s-29.64-.03-29.64-.03l-9.11-28.13-.48-1.47h0Z"/>
          </g>
          <polygon class="st9" points="401.48 75.23 385.89 63.03 376.33 91.68 401.48 75.23"/>
          <polygon class="st10" points="401.48 16.54 425.81 91.68 401.48 75.23 401.48 16.54"/>
          <polygon class="st6" points="401.48 16.54 391.88 45.02 440.71 45.05 401.48 75.23 425.81 91.68 401.48 16.54"/>
          <polygon class="st9" points="440.71 45.05 360.78 45.05 385.43 62.67 440.71 45.05"/>
          <polygon class="st5" points="376.33 91.68 401.48 75.23 401.48 16.54 376.33 91.68"/>
          <polygon class="st7" points="360.78 45.05 391.88 45.05 385.89 63.03 360.78 45.05"/>
          <polygon class="st4" points="401.48 75.23 401.48 16.54 425.81 91.68 401.48 75.23"/>
          <polygon class="st4" points="391.88 45.05 376.33 91.68 401.48 75.23 391.88 45.05"/>
          <polygon class="st8" points="425.81 91.68 410.7 45.02 391.88 45.05 425.81 91.68"/>
        </g>
        <path class="st1" d="M9.83,111.26l5.98-10.31v-58.11l-5.98-10.31v-.95h28.44c15.26,0,23.06,8.35,23.06,20.57,0,14.63-9.11,20.85-19.13,22.47v.39c2.5,1.01,5.55,1.68,8.09,2.07l12.23,25.39,6.64,8.85v.9h-18.39l-13.32-37.15c-1.05.17-2.21.22-3.13.22h-2.85v-2.97h3.09c9.28,0,12.87-8.35,12.87-19.67,0-11.88-3.8-18.1-12.87-18.1h-5.94v66.41l6.01,10.31v.95H9.83v-.95Z"/>
        <path class="st1" d="M67.97,56.96c0-15.26,12.52-26.16,30.48-26.16s30.66,10.86,30.66,26.05-12.55,26.16-30.66,26.16-30.48-10.83-30.48-26.05ZM115.22,56.96c0-15.29-5.66-24.33-16.77-24.33s-16.63,9.04-16.63,24.33,5.66,24.22,16.63,24.22,16.77-8.96,16.77-24.22Z"/>
        <path class="st1" d="M134.42,57.41c0-15.29,12.23-26.61,31.64-26.61,5.77,0,11.78.67,19.65,2.74l1.2,14.66h-.84c-3.02-7.88-8.4-15.57-19.79-15.57s-18,9.74-18,24.57,6.75,23.98,18.42,23.98c10.3,0,16.21-7.42,19.37-15.57h.84l-1.2,14.66c-7.91,2.07-13.29,2.74-19.9,2.74-18.46,0-31.39-10.58-31.39-25.59Z"/>
        <path class="st1" d="M192.39,81.57l5.98-6.43v-36.49l-5.98-6.47v-.6h24.79v.6l-5.98,6.47v36.46l5.98,6.47v.6h-24.79v-.6ZM213.63,57.2l22.01-18.04-10.09-7v-.6h24.36v.6l-10.55,6.47-14.59,12.3,19.41,24.15,7.07,6.05v1.02h-18l-19.62-24.96Z"/>
        <path class="st1" d="M279.26,80.23l-1.02-14.31h.63c4.32,9.95,10.72,15.22,19.12,15.22,7.38,0,11.81-2.53,11.81-7.84s-6.01-8.65-13.96-12.2l-2.53-1.12c-7.14-3.2-15.26-7.56-15.26-15.05,0-9.7,9.7-14.17,22.43-14.17,5.77,0,12.34,1.37,16.77,2.74l1.23,14.31h-.6c-3.94-8.82-9.46-15.19-18.91-15.19-5.98,0-9.7,2.95-9.7,7.21,0,4.82,4.92,7.14,11.32,9.67l3.16,1.23c8.65,3.38,17.3,8.51,17.3,17.44,0,10.37-10.65,14.84-23.34,14.84-7.24,0-14.24-1.41-18.46-2.78Z"/>
        <path class="st1" d="M337.94,81.57l6.01-6.47v-41.66h-9.32l-9.04,11.85h-.46v-13.71h50.45v13.71h-.42l-9.07-11.85h-9.32v41.66l5.94,6.47v.6h-24.79v-.6Z"/>
        <path class="st1" d="M434.83,111.26l5.98-10.31v-58.11l-5.98-10.31v-.95h28.44c15.26,0,23.06,8.35,23.06,20.57,0,14.63-9.11,20.85-19.12,22.47v.39c2.5,1.01,5.55,1.68,8.09,2.07l12.23,25.39,6.64,8.85v.9h-18.39l-13.32-37.15c-1.05.17-2.21.22-3.13.22h-2.85v-2.97h3.09c9.28,0,12.87-8.35,12.87-19.67,0-11.88-3.8-18.1-12.87-18.1h-5.94v66.41l6.01,10.31v.95h-24.82v-.95Z"/>
        <path class="st11" d="M403.95,52.28c.38-.56,1.9-1.69,1.9-1.94,0-.25-1.59-6-1.75-6.25-.16-.25,2.47-1.33,2.38-3-.09-1.67-1.66-2.53-3.14-2.45-.87.05-1.57.64-2.17,1.72-.02,0-.03,0-.05,0-.38,0-.77,0-1.15.01-.02-.37-.21-.66-.51-.7-.38-.06-.78.32-.9.83-.12.51.1.98.48,1.03.35.05.72-.26.87-.72.34,0,.69,0,1.03-.01-.24.48-.46,1.04-.67,1.67-.34,0-.67,0-1.01.01-.02-.37-.21-.66-.5-.7-.38-.06-.78.32-.9.83-.12.51.1.97.48,1.03.35.05.71-.26.86-.72.31,0,.61,0,.92,0-.04.14-.09.28-.13.42-.11.37-.24.79-.38,1.25-.33,0-.66,0-.99.01-.02-.37-.21-.66-.5-.7-.38-.06-.78.32-.89.83-.12.51.1.98.47,1.03.35.05.71-.26.86-.72.31,0,.62,0,.92,0-.16.53-.33,1.09-.51,1.67-.35,0-.7,0-1.06.01-.02-.37-.21-.66-.5-.7-.38-.06-.77.32-.89.83-.11.51.1.98.47,1.03.35.05.71-.26.86-.72.33,0,.66,0,.98-.01-.17.56-.34,1.12-.51,1.67-.35,0-.7,0-1.05.01-.02-.37-.21-.66-.5-.7-.38-.05-.77.32-.89.83-.11.51.1.98.47,1.03.35.05.71-.26.85-.72.33,0,.65,0,.98-.01-.18.6-.35,1.17-.51,1.67-.31,0-.61,0-.92,0-.02-.37-.21-.66-.5-.7-.37-.06-.77.32-.88.83-.11.51.1.98.47,1.03.35.05.71-.26.85-.72.28,0,.56,0,.84,0-.24.79-.41,1.36-.47,1.56-.21.75,1.02,1.35,1.18,1.97.11.41.02,13.29-.07,22.47l3.28-2.14,2.41,1.63c-.32-9.29-.74-20.77-.8-21.51-.09-1.24.51-2.49.88-3.05Z"/>
      </g>
    </g>
  </g>
</svg>